<svg xmlns="http://www.w3.org/2000/svg" xmlns:xlink="http://www.w3.org/1999/xlink" version="1.1" x="0px" y="0px" viewBox="0 0 100 125" style="enable-background:new 0 0 100 100;" xml:space="preserve"><symbol viewBox="-19.614 -20.347 39.228 46.027"><g><path style="" d="M0-5.167c-7.953,0-14.424,6.47-14.424,14.424S-7.954,23.68,0,23.68s14.424-6.47,14.424-14.423    S7.953-5.167,0-5.167z" fill="#F2F2F2"/><path style="" d="M0,21.68c6.85,0,12.423-5.573,12.423-12.423S6.85-3.167,0-3.167S-12.424,2.406-12.424,9.256    S-6.851,21.68,0,21.68 M0,25.68c-9.07,0-16.423-7.353-16.423-16.423S-9.071-7.167,0-7.167S16.423,0.186,16.423,9.256    S9.07,25.68,0,25.68L0,25.68z" fill="#FFFFFF"/></g><g><path style="" d="M0,0.166c-5.012,0-9.09,4.078-9.09,9.09s4.078,9.09,9.09,9.09s9.09-4.078,9.09-9.09    S5.012,0.166,0,0.166z" fill="#FFFFFF"/><path d="M0,16.347c3.91,0,7.09-3.181,7.09-7.09S3.909,2.166,0,2.166s-7.09,3.181-7.09,7.09S-3.91,16.347,0,16.347 M0,20.347    c-6.125,0-11.09-4.965-11.09-11.09S-6.125-1.834,0-1.834s11.09,4.965,11.09,11.09S6.125,20.347,0,20.347L0,20.347z"/></g><path style="" d="M17.613-20.347   c0,7.06-5.776,12.836-12.836,12.836h-9.555c-7.06,0-12.836-5.776-12.836-12.836" fill="#FFFFFF" stroke="#000000" stroke-width="4" stroke-miterlimit="3"/></symbol><g style="" display="none"><ellipse style="" cx="449.308" cy="511.473" rx="887.752" ry="795.256" display="inline" fill="#996666" stroke="#FFFFFF" stroke-miterlimit="10"/></g><g><path d="M28.371,95h9.385v-9.835h10.217V95h9.386v-9.922l1.287-0.028c4.315-0.09,7.229-0.214,8.658-0.366   c3.641-0.403,6.724-1.476,9.156-3.189c2.436-1.705,4.399-4.039,5.837-6.942c1.426-2.915,2.151-5.943,2.151-8.993   c0-3.85-1.103-7.242-3.279-10.081c-2.186-2.852-5.37-4.9-9.463-6.087l-3.42-0.992l3.245-1.468c2.868-1.297,5.172-3.271,6.849-5.869   c1.672-2.587,2.519-5.478,2.519-8.592c0-2.873-0.683-5.489-2.032-7.777c-1.373-2.331-3.104-4.218-5.146-5.608   c-2.042-1.397-4.401-2.329-7.013-2.77c-1.897-0.321-4.612-0.532-8.07-0.627l-1.278-0.035V5h-9.386v10.622H37.756V5h-9.385v10.622   H15.553v9.385h11.06V75.78h-11.06v9.385h12.818V95z M38.558,25.008h9.686c6.976,0,11.097,0.083,12.599,0.253   c2.755,0.331,4.884,1.331,6.335,2.974c1.439,1.631,2.168,3.751,2.168,6.3c0,2.693-0.85,4.904-2.525,6.572   c-1.629,1.636-3.871,2.633-6.659,2.959c-1.458,0.173-5.071,0.261-10.738,0.261H38.558V25.008z M38.558,53.705h13.083   c6.816,0,11.183,0.361,13.349,1.102c2.256,0.788,4.004,2.067,5.203,3.803c1.206,1.716,1.821,3.828,1.821,6.265   c0,2.872-0.802,5.226-2.384,6.997h0.001c-1.561,1.748-3.593,2.859-6.039,3.303c-1.492,0.309-4.848,0.462-10.23,0.462H38.558V53.705   z"/></g><text x="0" y="115" fill="#000000" font-size="5px" font-weight="bold" font-family="'Helvetica Neue', Helvetica, Arial-Unicode, Arial, Sans-serif">Created by Oksana Latysheva</text><text x="0" y="120" fill="#000000" font-size="5px" font-weight="bold" font-family="'Helvetica Neue', Helvetica, Arial-Unicode, Arial, Sans-serif">from the Noun Project</text></svg>