<svg xmlns="http://www.w3.org/2000/svg" viewBox="0 0 100 125" x="0px" y="0px"><g><path d="M50,3.1 C24.1,3.1 3.1,24.1 3.1,50 C3.1,75.9 24.1,96.9 50,96.9 C75.9,96.9 96.9,75.9 96.9,50 C96.9,24.1 75.9,3.1 50,3.1 Z M50,78.8 C34.1,78.8 21.2,65.9 21.2,50 C21.2,34.1 34.1,21.2 50,21.2 C65.9,21.2 78.8,34.1 78.8,50 C78.8,65.9 65.9,78.8 50,78.8 Z M67.8,20.2 C64.9,18.5 61.8,17.2 58.5,16.3 L58.5,9.9 C63.5,11 68.2,12.9 72.3,15.6 L67.8,20.2 Z M41.5,16.3 C38.2,17.1 35,18.5 32.2,20.2 L27.7,15.7 C31.8,13 36.5,11 41.5,10 L41.5,16.3 Z M20.2,32.2 C18.5,35.1 17.2,38.2 16.3,41.5 L9.9,41.5 C11,36.5 12.9,31.8 15.6,27.7 L20.2,32.2 Z M16.3,58.5 C17.1,61.8 18.5,65 20.2,67.8 L15.7,72.3 C13,68.2 11,63.5 9.9,58.5 L16.3,58.5 Z M32.2,79.8 C35.1,81.5 38.2,82.8 41.5,83.7 L41.5,90 C36.5,88.9 31.8,87 27.7,84.3 L32.2,79.8 Z M58.5,83.7 C61.8,82.9 65,81.5 67.8,79.8 L72.3,84.3 C68.2,87 63.5,89 58.5,90 L58.5,83.7 Z M79.8,67.8 C81.5,64.9 82.8,61.8 83.7,58.5 L90,58.5 C88.9,63.5 87,68.2 84.3,72.3 L79.8,67.8 Z M83.7,41.5 C82.9,38.2 81.5,35 79.8,32.2 L84.3,27.7 C87,31.8 89,36.5 90,41.5 L83.7,41.5 Z"/><path d="M0,23.2721893 L11.5,30.6213018 L11.5,39.8076923 L0,23.2721893 Z M23,23.2721893 L11.5,39.8076923 L11.5,30.6213018 L23,23.2721893 Z M11.5,28.1715976 L0,20.8224852 L23,20.8224852 L11.5,28.1715976 Z M11.5,0 L23,20.8224852 L0,20.8224852 L11.5,0 Z" transform="translate(39 30)"/></g><text x="0" y="115" fill="#000000" font-size="5px" font-weight="bold" font-family="'Helvetica Neue', Helvetica, Arial-Unicode, Arial, Sans-serif">Created by Olivier Brunet</text><text x="0" y="120" fill="#000000" font-size="5px" font-weight="bold" font-family="'Helvetica Neue', Helvetica, Arial-Unicode, Arial, Sans-serif">from the Noun Project</text></svg>